# xmcd
#
# Track frame offsets:
#	150
#	15657
#	31261
#	48235
#	66344
#	81423
#
# Disc length: 1313 seconds
#
# Revision: 0
# Processed by: cddbd v1.5.2PL0 Copyright (c) Steve Scherf et al.
# Submitted via: dBpowerAMP V4.0
#
DISCID=46051f06
DTITLE=Tori Darke - Tori Darke
DYEAR=2008
DGENRE=Country
TTITLE0=Crawl
TTITLE1=I believe in the sun
TTITLE2=Karma
TTITLE3=Not my time to fly
TTITLE4=You better run
TTITLE5=Maybe its just me
EXTD=
EXTT0=
EXTT1=
EXTT2=
EXTT3=
EXTT4=
EXTT5=
PLAYORDER=
